<?xml version="1.0" encoding="utf-8"?>
<!-- Generator: Adobe Illustrator 20.1.0, SVG Export Plug-In . SVG Version: 6.00 Build 0)  -->
<svg version="1.1" id="Layer_1" xmlns="http://www.w3.org/2000/svg" xmlns:xlink="http://www.w3.org/1999/xlink" x="0px" y="0px"
	 viewBox="0 0 100 100" style="enable-background:new 0 0 100 100;" xml:space="preserve">
<g id="icons_art_boards">
</g>
<g id="titles">
	<path d="M35.8,16c1.2,0.2,2.5,0.3,3.7,0.6c10.4,2.1,18.1,7.9,23,17.3c2.1,4,3.2,8.3,3.5,13c2.6,0,5.1,0,7.7,0
		C69.6,51,65.5,55,61.5,59c-4-4-8-8-12.1-12.1c2.8,0,5.6,0,8.6,0c-0.3-1.6-0.4-3.1-0.9-4.5c-2.9-9.7-9.3-15.8-19.1-17.9
		c-12.8-2.7-25.4,5.4-28.6,18.1c-3.5,13.6,5.2,27.5,19,30.3c3.6,0.7,7.3,0.7,10.9-0.2c0.3-0.1,0.7,0,0.8,0.1
		c1.9,1.9,3.9,3.8,5.8,5.8c0,0,0.1,0.1,0.2,0.4c-1.8,0.5-3.4,1.2-5.1,1.5C24.3,84.2,8.9,75.4,3,60.8c-1.2-2.9-1.9-5.9-2.1-9
		c0-0.2-0.1-0.4-0.1-0.6c0-1.6,0-3.2,0-4.9c0-0.2,0.1-0.4,0.1-0.6C1.3,40.1,3.1,35,6.3,30.5c5.1-7.5,12.1-12.1,21-13.9
		c1.2-0.2,2.4-0.4,3.6-0.6C32.5,16,34.2,16,35.8,16z"/>
	<path d="M64.1,82.4c-1.2-0.2-2.5-0.3-3.7-0.6c-10.4-2.1-18.1-7.9-23-17.3c-2.1-4-3.2-8.3-3.5-13c-2.6,0-5.1,0-7.7,0
		c4.1-4.1,8.2-8.1,12.1-12.1c4,4,8,8,12.1,12.1c-2.8,0-5.6,0-8.6,0c0.3,1.6,0.4,3.1,0.9,4.5c2.9,9.7,9.3,15.8,19.1,17.9
		c12.8,2.7,25.4-5.4,28.6-18.1c3.5-13.6-5.2-27.5-19-30.3c-3.6-0.7-7.3-0.7-10.9,0.2c-0.3,0.1-0.7,0-0.8-0.1
		c-1.9-1.9-3.9-3.8-5.8-5.8c0,0-0.1-0.1-0.2-0.4c1.8-0.5,3.4-1.2,5.1-1.5c16.6-3.7,32.1,5.1,38,19.7c1.2,2.9,1.9,5.9,2.1,9
		c0,0.2,0.1,0.4,0.1,0.6c0,1.6,0,3.2,0,4.9c0,0.2-0.1,0.4-0.1,0.6c-0.5,5.5-2.3,10.6-5.4,15.2c-5.1,7.5-12.1,12.1-21,13.9
		c-1.2,0.2-2.4,0.4-3.6,0.6C67.3,82.4,65.7,82.4,64.1,82.4z"/>
</g>
<g id="Ebene_3">
</g>
</svg>
