<?xml version="1.0" encoding="UTF-8" standalone="no"?>
<!-- Created with Inkscape (http://www.inkscape.org/) -->

<svg
   xmlns:dc="http://purl.org/dc/elements/1.1/"
   xmlns:cc="http://creativecommons.org/ns#"
   xmlns:rdf="http://www.w3.org/1999/02/22-rdf-syntax-ns#"
   xmlns:svg="http://www.w3.org/2000/svg"
   xmlns="http://www.w3.org/2000/svg"
   xmlns:sodipodi="http://sodipodi.sourceforge.net/DTD/sodipodi-0.dtd"
   xmlns:inkscape="http://www.inkscape.org/namespaces/inkscape"
   width="800"
   height="800"
   viewBox="0 0 211.66666 211.66667"
   version="1.1"
   id="svg48"
   inkscape:version="0.92.2 (5c3e80d, 2017-08-06)"
   sodipodi:docname="fiscalize-logo.svg"
   inkscape:export-filename="/home/gerardo/Projetos/wikificha/desgin/logos/fiscalize-logo.png"
   inkscape:export-xdpi="143"
   inkscape:export-ydpi="143">
  <defs
     id="defs42" />
  <sodipodi:namedview
     id="base"
     pagecolor="#ffffff"
     bordercolor="#666666"
     borderopacity="1.0"
     inkscape:pageopacity="0.0"
     inkscape:pageshadow="2"
     inkscape:zoom="0.49497475"
     inkscape:cx="-78.78257"
     inkscape:cy="358.20738"
     inkscape:document-units="mm"
     inkscape:current-layer="layer1"
     showgrid="false"
     inkscape:window-width="1366"
     inkscape:window-height="738"
     inkscape:window-x="0"
     inkscape:window-y="1"
     inkscape:window-maximized="1"
     units="px" />
  <metadata
     id="metadata45">
    <rdf:RDF>
      <cc:Work
         rdf:about="">
        <dc:format>image/svg+xml</dc:format>
        <dc:type
           rdf:resource="http://purl.org/dc/dcmitype/StillImage" />
        <dc:title></dc:title>
      </cc:Work>
    </rdf:RDF>
  </metadata>
  <g
     inkscape:label="Camada 1"
     inkscape:groupmode="layer"
     id="layer1"
     transform="translate(0,-85.333317)">
    <g
       style="isolation:isolate;fill:#6900ae;fill-opacity:1"
       id="g1675"
       transform="matrix(0,-0.54871254,0.54871254,0,20.667642,276.33227)">
      <path
         id="path1669"
         d="m 273.587,214.965 c 49.11,-49.111 49.109,-129.021 0,-178.132 -49.111,-49.111 -129.02,-49.111 -178.13,0 C 53.793,78.497 47.483,140.462 76.51,188.85 c 0,0 2.085,3.498 -0.731,6.312 -16.065,16.064 -64.263,64.263 -64.263,64.263 -12.791,12.79 -15.836,30.675 -4.493,42.02 l 1.953,1.951 c 11.343,11.345 29.229,8.301 42.019,-4.49 0,0 48.096,-48.097 64.128,-64.128 2.951,-2.951 6.448,-0.866 6.448,-0.866 48.387,29.026 110.352,22.717 152.016,-18.947 z M 118.711,191.71 C 82.423,155.422 82.424,96.378 118.712,60.09 c 36.288,-36.287 95.332,-36.288 131.619,0 36.288,36.287 36.288,95.332 0,131.62 -36.288,36.286 -95.331,36.286 -131.62,0 z"
         inkscape:connector-curvature="0"
         style="fill:#6900ae;fill-opacity:1" />
      <g
         id="g1673"
         style="fill:#6900ae;fill-opacity:1">
        <path
           id="path1671"
           d="m 126.75,118.424 c -1.689,0 -3.406,-0.332 -5.061,-1.031 -6.611,-2.798 -9.704,-10.426 -6.906,-17.038 17.586,-41.559 65.703,-61.062 107.261,-43.476 6.611,2.798 9.704,10.426 6.906,17.038 -2.799,6.612 -10.425,9.703 -17.039,6.906 -28.354,-11.998 -61.186,1.309 -73.183,29.663 -2.099,4.959 -6.913,7.938 -11.978,7.938 z"
           inkscape:connector-curvature="0"
           style="fill:#6900ae;fill-opacity:1" />
      </g>
    </g>
  </g>
</svg>
