<?xml version="1.0" encoding="UTF-8" standalone="no"?>
<!-- Created with Inkscape (http://www.inkscape.org/) -->

<svg
   xmlns:dc="http://purl.org/dc/elements/1.1/"
   xmlns:cc="http://creativecommons.org/ns#"
   xmlns:rdf="http://www.w3.org/1999/02/22-rdf-syntax-ns#"
   xmlns:svg="http://www.w3.org/2000/svg"
   xmlns="http://www.w3.org/2000/svg"
   xmlns:sodipodi="http://sodipodi.sourceforge.net/DTD/sodipodi-0.dtd"
   xmlns:inkscape="http://www.inkscape.org/namespaces/inkscape"
   width="2345"
   height="800"
   viewBox="0 0 620.44792 211.66666"
   version="1.1"
   id="svg48"
   inkscape:version="0.92.2 (5c3e80d, 2017-08-06)"
   sodipodi:docname="fiscalize-logo-with-title.svg"
   inkscape:export-filename="/home/gerardo/Projetos/wikificha/desgin/logos/fiscalize-logo-with-title.png"
   inkscape:export-xdpi="119.30888"
   inkscape:export-ydpi="119.30888">
  <defs
     id="defs42" />
  <sodipodi:namedview
     id="base"
     pagecolor="#ffffff"
     bordercolor="#666666"
     borderopacity="1.0"
     inkscape:pageopacity="0.0"
     inkscape:pageshadow="2"
     inkscape:zoom="0.35355339"
     inkscape:cx="1027.5443"
     inkscape:cy="508.42679"
     inkscape:document-units="mm"
     inkscape:current-layer="layer1"
     showgrid="false"
     inkscape:window-width="1366"
     inkscape:window-height="738"
     inkscape:window-x="0"
     inkscape:window-y="1"
     inkscape:window-maximized="1"
     units="px"
     showguides="true"
     inkscape:guide-bbox="true" />
  <metadata
     id="metadata45">
    <rdf:RDF>
      <cc:Work
         rdf:about="">
        <dc:format>image/svg+xml</dc:format>
        <dc:type
           rdf:resource="http://purl.org/dc/dcmitype/StillImage" />
        <dc:title />
      </cc:Work>
    </rdf:RDF>
  </metadata>
  <g
     inkscape:label="Camada 1"
     inkscape:groupmode="layer"
     id="layer1"
     transform="translate(0,-85.3333)">
    <g
       id="g5008">
      <g
         transform="matrix(0,-0.54871254,0.54871254,0,20.169753,276.33225)"
         id="g1675"
         style="isolation:isolate;fill:#6900ae;fill-opacity:1">
        <path
           style="fill:#6900ae;fill-opacity:1"
           inkscape:connector-curvature="0"
           d="m 273.587,214.965 c 49.11,-49.111 49.109,-129.021 0,-178.132 -49.111,-49.111 -129.02,-49.111 -178.13,0 C 53.793,78.497 47.483,140.462 76.51,188.85 c 0,0 2.085,3.498 -0.731,6.312 -16.065,16.064 -64.263,64.263 -64.263,64.263 -12.791,12.79 -15.836,30.675 -4.493,42.02 l 1.953,1.951 c 11.343,11.345 29.229,8.301 42.019,-4.49 0,0 48.096,-48.097 64.128,-64.128 2.951,-2.951 6.448,-0.866 6.448,-0.866 48.387,29.026 110.352,22.717 152.016,-18.947 z M 118.711,191.71 C 82.423,155.422 82.424,96.378 118.712,60.09 c 36.288,-36.287 95.332,-36.288 131.619,0 36.288,36.287 36.288,95.332 0,131.62 -36.288,36.286 -95.331,36.286 -131.62,0 z"
           id="path1669" />
        <g
           style="fill:#6900ae;fill-opacity:1"
           id="g1673">
          <path
             style="fill:#6900ae;fill-opacity:1"
             inkscape:connector-curvature="0"
             d="m 126.75,118.424 c -1.689,0 -3.406,-0.332 -5.061,-1.031 -6.611,-2.798 -9.704,-10.426 -6.906,-17.038 17.586,-41.559 65.703,-61.062 107.261,-43.476 6.611,2.798 9.704,10.426 6.906,17.038 -2.799,6.612 -10.425,9.703 -17.039,6.906 -28.354,-11.998 -61.186,1.309 -73.183,29.663 -2.099,4.959 -6.913,7.938 -11.978,7.938 z"
             id="path1671" />
        </g>
      </g>
      <g
         id="g4962">
        <g
           aria-label="fiscalize"
           style="font-style:normal;font-variant:normal;font-weight:normal;font-stretch:normal;font-size:103.73073578px;line-height:1.25;font-family:'Gotham Rounded';-inkscape-font-specification:'Gotham Rounded';letter-spacing:0px;word-spacing:0px;fill:#6c7660;fill-opacity:1;stroke:none;stroke-width:2.59326839"
           id="text21">
          <path
             d="m 188.36357,191.44058 c 0,4.3567 3.52685,7.88354 7.88354,7.88354 4.35669,0 7.88354,-3.52684 7.88354,-7.88354 v -34.85352 h 6.63876 c 3.63058,0 6.53504,-2.80073 6.53504,-6.43131 0,-3.63057 -2.90446,-6.4313 -6.53504,-6.4313 h -6.84623 v -2.17835 c 0,-4.14923 2.07462,-6.01638 5.70519,-6.01638 h 1.3485 c 3.52685,0 6.43131,-3.00819 6.43131,-6.53504 0,-3.52684 -2.697,-5.91265 -5.394,-6.32757 -1.76342,-0.3112 -3.94177,-0.41493 -6.4313,-0.41493 -5.60146,0 -9.85442,1.45223 -12.75888,4.3567 -2.90447,2.90446 -4.46043,7.36488 -4.46043,13.48499 v 3.52685 h -0.62238 c -3.63058,0 -6.53504,2.90446 -6.53504,6.53503 0,3.63058 2.90446,6.43131 6.53504,6.43131 h 0.62238 z m 37.65426,0 c 0,4.3567 3.52685,7.88354 7.88354,7.88354 4.35669,0 7.88353,-3.52684 7.88353,-7.88354 v -41.07737 c 0,-4.35669 -3.52684,-7.88353 -7.88353,-7.88353 -4.35669,0 -7.88354,3.52684 -7.88354,7.88353 z m -0.93358,-61.40859 c 0,4.56415 3.83804,7.46861 8.81712,7.46861 4.97907,0 8.81711,-2.90446 8.81711,-7.46861 v -0.20746 c 0,-4.56415 -3.83804,-7.36488 -8.81711,-7.36488 -4.97908,0 -8.81712,2.80073 -8.81712,7.36488 z"
             style="fill:#6c7660;fill-opacity:1;stroke-width:2.59326839"
             id="path4751"
             inkscape:connector-curvature="0" />
          <path
             d="m 276.07764,199.73904 c 12.03276,0 21.2648,-5.60146 21.2648,-17.94541 v -0.20746 c 0,-10.16562 -9.02458,-13.89992 -16.80438,-16.49319 -6.01638,-2.07462 -11.30665,-3.52685 -11.30665,-6.63877 v -0.20746 c 0,-2.17835 1.97088,-3.83804 5.80892,-3.83804 3.31938,0 7.57234,1.3485 12.03276,3.52685 1.03731,0.51865 1.76343,0.72611 2.90446,0.72611 3.52685,0 6.32758,-2.697 6.32758,-6.22384 0,-2.697 -1.45223,-4.77162 -3.73431,-5.91265 -5.394,-2.697 -11.41038,-4.25296 -17.2193,-4.25296 -11.20292,0 -20.33122,6.32757 -20.33122,17.63422 v 0.20746 c 0,10.788 8.81711,14.41858 16.59691,16.70065 6.12012,1.86715 11.51412,3.00819 11.51412,6.43131 v 0.20746 c 0,2.48954 -2.07462,4.14923 -6.63877,4.14923 -4.46042,0 -9.75069,-1.65969 -15.04096,-4.97908 -0.82984,-0.51865 -1.97088,-0.82984 -3.11192,-0.82984 -3.52684,0 -6.22384,2.697 -6.22384,6.22384 0,2.48954 1.3485,4.35669 3.00819,5.394 6.7425,4.35669 14.10738,6.32757 20.95361,6.32757 z"
             style="fill:#6c7660;fill-opacity:1;stroke-width:2.59326839"
             id="path4753"
             inkscape:connector-curvature="0" />
          <path
             d="m 334.8881,199.94651 c 9.1283,0 15.04095,-2.90447 19.70884,-7.15743 1.3485,-1.24476 2.28207,-2.90446 2.28207,-4.97907 0,-3.73431 -2.90446,-6.7425 -6.63876,-6.7425 -1.86716,0 -3.42312,0.82985 -4.25296,1.45223 -3.0082,2.38581 -6.22385,3.83804 -10.37308,3.83804 -8.60965,0 -14.10738,-6.84623 -14.10738,-15.35215 v -0.20746 c 0,-8.19473 5.60146,-15.14469 13.485,-15.14469 4.14923,0 7.05369,1.3485 9.85442,3.52685 0.93357,0.72611 2.48953,1.55596 4.56415,1.55596 3.94177,0 7.15742,-3.11192 7.15742,-7.05369 0,-2.697 -1.45223,-4.56416 -2.48954,-5.394 -4.66788,-3.94177 -10.58053,-6.22385 -18.98272,-6.22385 -17.01184,0 -29.14834,13.07008 -29.14834,28.94088 v 0.20746 c 0,15.8708 12.24023,28.73342 28.94088,28.73342 z"
             style="fill:#6c7660;fill-opacity:1;stroke-width:2.59326839"
             id="path4755"
             inkscape:connector-curvature="0" />
          <path
             d="m 383.57023,199.73904 c 7.67607,0 12.96634,-2.80073 16.80438,-7.05369 v 0.10373 c 0,3.31939 3.00819,6.53504 7.57234,6.53504 4.25296,0 7.67608,-3.31938 7.67608,-7.57234 v -25.3103 c 0,-7.46862 -1.86716,-13.58873 -6.01639,-17.73796 -3.94177,-3.94177 -10.16561,-6.22384 -18.77526,-6.22384 -7.36488,0 -12.75888,1.03731 -17.73796,2.90446 -2.48953,0.93357 -4.25296,3.31938 -4.25296,6.12011 0,3.63058 2.90446,6.43131 6.53504,6.43131 0.72611,0 1.3485,-0.10373 2.28208,-0.41493 3.00819,-0.93357 6.53503,-1.55596 10.89172,-1.55596 7.88354,0 11.92904,3.63058 11.92904,10.16562 v 0.93357 c -3.94177,-1.3485 -7.98727,-2.28207 -13.58873,-2.28207 -13.1738,0 -22.40584,5.60146 -22.40584,17.73795 v 0.20746 c 0,10.99546 8.60965,17.01184 19.08646,17.01184 z m 4.77161,-10.89172 c -5.0828,0 -8.60965,-2.48954 -8.60965,-6.7425 v -0.20746 c 0,-4.97908 4.14923,-7.67608 10.89173,-7.67608 3.83804,0 7.36488,0.82985 10.06188,2.07462 v 2.80073 c 0,5.70519 -4.97908,9.75069 -12.34396,9.75069 z"
             style="fill:#6c7660;fill-opacity:1;stroke-width:2.59326839"
             id="path4757"
             inkscape:connector-curvature="0" />
          <path
             d="m 429.9168,191.44058 c 0,4.3567 3.52684,7.88354 7.88353,7.88354 4.3567,0 7.88354,-3.52684 7.88354,-7.88354 v -61.20113 c 0,-4.35669 -3.52684,-7.88354 -7.88354,-7.88354 -4.35669,0 -7.88353,3.52685 -7.88353,7.88354 z"
             style="fill:#6c7660;fill-opacity:1;stroke-width:2.59326839"
             id="path4759"
             inkscape:connector-curvature="0" />
          <path
             d="m 460.38608,130.03199 c 0,4.56415 3.83804,7.46861 8.81712,7.46861 4.97907,0 8.81711,-2.90446 8.81711,-7.46861 v -0.20746 c 0,-4.56415 -3.83804,-7.36488 -8.81711,-7.36488 -4.97908,0 -8.81712,2.80073 -8.81712,7.36488 z m 0.93358,61.40859 c 0,4.3567 3.52685,7.88354 7.88354,7.88354 4.35669,0 7.88353,-3.52684 7.88353,-7.88354 v -41.07737 c 0,-4.35669 -3.52684,-7.88353 -7.88353,-7.88353 -4.35669,0 -7.88354,3.52684 -7.88354,7.88353 z"
             style="fill:#6c7660;fill-opacity:1;stroke-width:2.59326839"
             id="path4761"
             inkscape:connector-curvature="0" />
          <path
             d="m 497.18295,198.70174 h 35.47591 c 3.52684,0 6.4313,-2.80073 6.4313,-6.32758 0,-3.52684 -2.90446,-6.4313 -6.4313,-6.4313 h -23.02823 l 25.93269,-28.52596 c 2.48954,-2.697 3.52684,-4.66788 3.52684,-7.67607 v -0.31119 c 0,-3.73431 -3.21565,-6.32758 -7.67607,-6.32758 h -34.54234 c -3.52684,0 -6.4313,2.90446 -6.4313,6.43131 0,3.52684 2.90446,6.32757 6.4313,6.32757 h 21.99092 l -25.82895,28.52595 c -2.48954,2.697 -3.52685,4.66789 -3.52685,7.67608 v 0.31119 c 0,3.73431 3.21565,6.32758 7.67608,6.32758 z"
             style="fill:#6c7660;fill-opacity:1;stroke-width:2.59326839"
             id="path4763"
             inkscape:connector-curvature="0" />
          <path
             d="m 561.48301,166.54521 c 1.24477,-7.15742 5.49773,-11.82531 12.03277,-11.82531 6.63876,0 10.78799,4.77162 11.72157,11.82531 z m 32.88264,26.6588 c 1.14104,-1.03731 2.07462,-2.59327 2.07462,-4.66789 0,-3.52684 -2.59327,-6.22384 -6.12011,-6.22384 -1.6597,0 -2.697,0.41492 -3.83804,1.24477 -3.21565,2.38581 -6.84623,3.73431 -11.20292,3.73431 -7.05369,0 -12.03277,-3.73431 -13.58873,-10.89173 h 31.22295 c 4.14923,0 7.36489,-3.00819 7.36489,-7.57235 0,-11.51411 -8.19473,-26.76253 -26.76253,-26.76253 -16.182,0 -27.48865,13.07008 -27.48865,28.94088 v 0.20746 c 0,17.01184 12.34396,28.73342 29.04461,28.73342 8.09099,0 14.41857,-2.59327 19.29391,-6.7425 z"
             style="fill:#6c7660;fill-opacity:1;stroke-width:2.59326839"
             id="path4765"
             inkscape:connector-curvature="0" />
        </g>
        <g
           aria-label="Democracia de forma transparente"
           style="font-style:normal;font-variant:normal;font-weight:normal;font-stretch:normal;font-size:24.6307621px;line-height:1.25;font-family:'Gotham Rounded';-inkscape-font-specification:'Gotham Rounded';letter-spacing:0px;word-spacing:0px;fill:#6c7660;fill-opacity:1;stroke:none;stroke-width:0.61576903"
           id="text24">
          <path
             d="m 181.20631,223.22644 c 0,0.34483 0.29557,0.6404 0.6404,0.6404 h 5.09857 c 5.41877,0 9.16264,-3.76851 9.16264,-8.62077 v -0.0493 c 0,-4.85226 -3.74387,-8.57151 -9.16264,-8.57151 h -5.09857 c -0.34483,0 -0.6404,0.29557 -0.6404,0.6404 z m 1.2808,-0.54188 v -14.87698 h 4.45817 c 4.803,0 7.83258,3.34978 7.83258,7.43849 v 0.0493 c 0,4.11334 -3.02958,7.38923 -7.83258,7.38923 z"
             style="font-style:normal;font-variant:normal;font-weight:300;font-stretch:normal;font-family:'Gotham Rounded';-inkscape-font-specification:'Gotham Rounded Light';fill:#6c7660;fill-opacity:1;stroke-width:0.61576903"
             id="path4864"
             inkscape:connector-curvature="0" />
          <path
             d="m 200.59688,216.99485 c 0.22168,-2.78327 2.14288,-4.87689 4.63058,-4.87689 2.8818,0 4.33502,2.33993 4.50743,4.87689 z m 9.77841,5.1232 c 0.14779,-0.14778 0.19705,-0.29557 0.19705,-0.41872 0,-0.3202 -0.27094,-0.56651 -0.59114,-0.56651 -0.17241,0 -0.29557,0.0739 -0.39409,0.17242 -1.00986,0.98523 -2.26603,1.72415 -4.06408,1.72415 -2.46307,0 -4.70447,-1.82268 -4.92615,-4.95078 h 9.85231 c 0.29556,0 0.59113,-0.27094 0.59113,-0.56651 0,-3.59609 -2.2414,-6.50252 -5.76359,-6.50252 -3.39905,0 -5.96065,2.90643 -5.96065,6.55178 v 0.0493 c 0,3.91629 2.85717,6.55179 6.15769,6.55179 2.26603,0 3.66999,-0.81282 4.90152,-2.04436 z"
             style="font-style:normal;font-variant:normal;font-weight:300;font-stretch:normal;font-family:'Gotham Rounded';-inkscape-font-specification:'Gotham Rounded Light';fill:#6c7660;fill-opacity:1;stroke-width:0.61576903"
             id="path4866"
             inkscape:connector-curvature="0" />
          <path
             d="m 214.56214,223.34959 c 0,0.36946 0.27094,0.61577 0.61577,0.61577 0.34483,0 0.59113,-0.24631 0.59113,-0.61577 v -6.7242 c 0,-2.53697 1.77342,-4.50743 4.01482,-4.50743 2.2414,0 3.66998,1.601 3.66998,4.21186 v 7.01977 c 0,0.36946 0.27094,0.61577 0.61577,0.61577 0.34483,0 0.59114,-0.24631 0.59114,-0.61577 v -6.79809 c 0,-2.80791 1.84731,-4.43354 3.96555,-4.43354 2.31529,0 3.71925,1.57637 3.71925,4.28576 v 6.94587 c 0,0.36946 0.27094,0.61577 0.61577,0.61577 0.34483,0 0.59114,-0.24631 0.59114,-0.61577 v -7.09366 c 0,-3.15274 -1.84731,-5.24635 -4.82763,-5.24635 -2.36456,0 -3.71925,1.30543 -4.53206,2.70938 -0.68967,-1.45321 -2.04436,-2.70938 -4.2365,-2.70938 -2.24139,0 -3.37441,1.23154 -4.18723,2.53697 v -1.72416 c 0,-0.36946 -0.27093,-0.61577 -0.61576,-0.61577 -0.34483,0 -0.59114,0.27094 -0.59114,0.61577 z"
             style="font-style:normal;font-variant:normal;font-weight:300;font-stretch:normal;font-family:'Gotham Rounded';-inkscape-font-specification:'Gotham Rounded Light';fill:#6c7660;fill-opacity:1;stroke-width:0.61576903"
             id="path4868"
             inkscape:connector-curvature="0" />
          <path
             d="m 243.55678,224.16241 c 3.74387,0 6.47789,-3.05422 6.47789,-6.57642 v -0.0493 c 0,-3.5222 -2.70939,-6.52715 -6.42863,-6.52715 -3.74388,0 -6.47789,3.05421 -6.47789,6.57641 v 0.0493 c 0,3.5222 2.70938,6.52716 6.42863,6.52716 z m 0.0493,-1.13302 c -2.90643,0 -5.17246,-2.41381 -5.17246,-5.4434 v -0.0493 c 0,-2.95569 2.14287,-5.39414 5.1232,-5.39414 2.90643,0 5.17246,2.41382 5.17246,5.4434 v 0.0493 c 0,2.9557 -2.14288,5.39414 -5.1232,5.39414 z"
             style="font-style:normal;font-variant:normal;font-weight:300;font-stretch:normal;font-family:'Gotham Rounded';-inkscape-font-specification:'Gotham Rounded Light';fill:#6c7660;fill-opacity:1;stroke-width:0.61576903"
             id="path4870"
             inkscape:connector-curvature="0" />
          <path
             d="m 259.31123,224.16241 c 2.14287,0 3.59609,-0.88671 4.85226,-2.16751 0.0985,-0.0985 0.14778,-0.24631 0.14778,-0.36946 0,-0.29557 -0.29557,-0.59114 -0.59114,-0.59114 -0.17241,0 -0.29557,0.0985 -0.39409,0.19705 -1.00986,1.00986 -2.31529,1.79804 -3.94092,1.79804 -2.8818,0 -5.17246,-2.41381 -5.17246,-5.4434 v -0.0493 c 0,-3.00495 2.21677,-5.39414 5.07394,-5.39414 1.69952,0 2.8818,0.81282 3.89166,1.77342 0.0985,0.0985 0.27094,0.14778 0.41872,0.14778 0.34483,0 0.61577,-0.27094 0.61577,-0.61577 0,-0.17241 -0.0739,-0.34483 -0.17242,-0.44335 -1.13301,-1.05912 -2.5616,-1.99509 -4.7291,-1.99509 -3.59609,0 -6.404,3.05421 -6.404,6.57641 v 0.0493 c 0,3.5222 2.78328,6.52716 6.404,6.52716 z"
             style="font-style:normal;font-variant:normal;font-weight:300;font-stretch:normal;font-family:'Gotham Rounded';-inkscape-font-specification:'Gotham Rounded Light';fill:#6c7660;fill-opacity:1;stroke-width:0.61576903"
             id="path4872"
             inkscape:connector-curvature="0" />
          <path
             d="m 267.81654,223.34959 c 0,0.36946 0.27094,0.61577 0.61577,0.61577 0.34483,0 0.59114,-0.27094 0.59114,-0.61577 v -4.63058 c 0,-4.03945 2.38918,-6.03454 5.0493,-6.28085 0.3941,-0.0246 0.6404,-0.3202 0.6404,-0.66503 0,-0.36946 -0.27094,-0.66503 -0.6404,-0.66503 -1.77341,0 -3.96555,1.33006 -5.0493,3.76851 v -3.05422 c 0,-0.36946 -0.27094,-0.61577 -0.61577,-0.61577 -0.34483,0 -0.59114,0.27094 -0.59114,0.61577 z"
             style="font-style:normal;font-variant:normal;font-weight:300;font-stretch:normal;font-family:'Gotham Rounded';-inkscape-font-specification:'Gotham Rounded Light';fill:#6c7660;fill-opacity:1;stroke-width:0.61576903"
             id="path4874"
             inkscape:connector-curvature="0" />
          <path
             d="m 280.87084,224.16241 c 2.38919,0 3.94092,-1.18228 4.803,-2.38919 v 1.57637 c 0,0.36946 0.24631,0.61577 0.59114,0.61577 0.34483,0 0.59114,-0.24631 0.59114,-0.61577 v -7.31534 c 0,-1.55173 -0.44336,-2.70938 -1.2808,-3.54683 -0.91134,-0.91133 -2.26603,-1.37932 -3.96556,-1.37932 -1.60099,0 -2.85716,0.36946 -4.13796,0.93597 -0.12316,0.0493 -0.34483,0.24631 -0.34483,0.54188 0,0.29557 0.27093,0.56651 0.5665,0.56651 0.0739,0 0.17242,-0.0246 0.27094,-0.0739 1.03449,-0.49261 2.19214,-0.83744 3.57146,-0.83744 2.58623,0 4.13797,1.30543 4.13797,3.8424 v 0.54187 c -1.20691,-0.3202 -2.41381,-0.54187 -4.1626,-0.54187 -3.25126,0 -5.49266,1.47784 -5.49266,4.0887 v 0.0493 c 0,2.61086 2.51234,3.94093 4.85226,3.94093 z m 0.0739,-1.13302 c -1.9212,0 -3.64535,-1.05912 -3.64535,-2.8818 v -0.0493 c 0,-1.74878 1.47785,-2.93106 4.13797,-2.93106 1.79805,0 3.202,0.29557 4.26112,0.56651 v 1.42858 c 0,2.29066 -2.19214,3.86703 -4.75374,3.86703 z"
             style="font-style:normal;font-variant:normal;font-weight:300;font-stretch:normal;font-family:'Gotham Rounded';-inkscape-font-specification:'Gotham Rounded Light';fill:#6c7660;fill-opacity:1;stroke-width:0.61576903"
             id="path4876"
             inkscape:connector-curvature="0" />
          <path
             d="m 296.73844,224.16241 c 2.14288,0 3.59609,-0.88671 4.85226,-2.16751 0.0985,-0.0985 0.14779,-0.24631 0.14779,-0.36946 0,-0.29557 -0.29557,-0.59114 -0.59114,-0.59114 -0.17242,0 -0.29557,0.0985 -0.39409,0.19705 -1.00986,1.00986 -2.31529,1.79804 -3.94092,1.79804 -2.8818,0 -5.17246,-2.41381 -5.17246,-5.4434 v -0.0493 c 0,-3.00495 2.21676,-5.39414 5.07393,-5.39414 1.69953,0 2.8818,0.81282 3.89166,1.77342 0.0985,0.0985 0.27094,0.14778 0.41873,0.14778 0.34483,0 0.61576,-0.27094 0.61576,-0.61577 0,-0.17241 -0.0739,-0.34483 -0.17241,-0.44335 -1.13302,-1.05912 -2.5616,-1.99509 -4.72911,-1.99509 -3.59609,0 -6.40399,3.05421 -6.40399,6.57641 v 0.0493 c 0,3.5222 2.78327,6.52716 6.40399,6.52716 z"
             style="font-style:normal;font-variant:normal;font-weight:300;font-stretch:normal;font-family:'Gotham Rounded';-inkscape-font-specification:'Gotham Rounded Light';fill:#6c7660;fill-opacity:1;stroke-width:0.61576903"
             id="path4878"
             inkscape:connector-curvature="0" />
          <path
             d="m 305.26839,207.41349 c 0,0.41872 0.3202,0.73892 0.73892,0.73892 0.41872,0 0.76355,-0.3202 0.76355,-0.73892 v -0.41873 c 0,-0.41872 -0.34483,-0.73892 -0.76355,-0.73892 -0.41872,0 -0.73892,0.3202 -0.73892,0.73892 z m 0.14778,15.9361 c 0,0.36946 0.27094,0.61577 0.61577,0.61577 0.34483,0 0.59114,-0.24631 0.59114,-0.61577 v -11.5272 c 0,-0.36946 -0.27094,-0.61577 -0.61577,-0.61577 -0.34483,0 -0.59114,0.27094 -0.59114,0.61577 z"
             style="font-style:normal;font-variant:normal;font-weight:300;font-stretch:normal;font-family:'Gotham Rounded';-inkscape-font-specification:'Gotham Rounded Light';fill:#6c7660;fill-opacity:1;stroke-width:0.61576903"
             id="path4880"
             inkscape:connector-curvature="0" />
          <path
             d="m 315.1711,224.16241 c 2.38918,0 3.94092,-1.18228 4.803,-2.38919 v 1.57637 c 0,0.36946 0.2463,0.61577 0.59113,0.61577 0.34483,0 0.59114,-0.24631 0.59114,-0.61577 v -7.31534 c 0,-1.55173 -0.44335,-2.70938 -1.2808,-3.54683 -0.91134,-0.91133 -2.26603,-1.37932 -3.96555,-1.37932 -1.601,0 -2.85717,0.36946 -4.13797,0.93597 -0.12315,0.0493 -0.34483,0.24631 -0.34483,0.54188 0,0.29557 0.27094,0.56651 0.56651,0.56651 0.0739,0 0.17241,-0.0246 0.27094,-0.0739 1.03449,-0.49261 2.19213,-0.83744 3.57146,-0.83744 2.58623,0 4.13797,1.30543 4.13797,3.8424 v 0.54187 c -1.20691,-0.3202 -2.41382,-0.54187 -4.1626,-0.54187 -3.25126,0 -5.49266,1.47784 -5.49266,4.0887 v 0.0493 c 0,2.61086 2.51233,3.94093 4.85226,3.94093 z m 0.0739,-1.13302 c -1.9212,0 -3.64535,-1.05912 -3.64535,-2.8818 v -0.0493 c 0,-1.74878 1.47784,-2.93106 4.13796,-2.93106 1.79805,0 3.202,0.29557 4.26113,0.56651 v 1.42858 c 0,2.29066 -2.19214,3.86703 -4.75374,3.86703 z"
             style="font-style:normal;font-variant:normal;font-weight:300;font-stretch:normal;font-family:'Gotham Rounded';-inkscape-font-specification:'Gotham Rounded Light';fill:#6c7660;fill-opacity:1;stroke-width:0.61576903"
             id="path4882"
             inkscape:connector-curvature="0" />
          <path
             d="m 344.58024,206.40363 c 0,-0.36947 -0.27094,-0.61577 -0.61577,-0.61577 -0.34483,0 -0.59114,0.2463 -0.59114,0.61577 v 7.6109 c -1.03449,-1.57637 -2.66012,-3.00495 -5.17246,-3.00495 -3.02959,0 -6.10843,2.48771 -6.10843,6.57641 v 0.0493 c 0,4.08871 3.07884,6.52716 6.10843,6.52716 2.48771,0 4.0887,-1.45322 5.17246,-3.10348 v 2.29066 c 0,0.36946 0.27094,0.61577 0.61577,0.61577 0.34483,0 0.59114,-0.24631 0.59114,-0.61577 z m -6.25622,5.76359 c 2.61086,0 5.1232,2.16751 5.1232,5.39414 v 0.0493 c 0,3.202 -2.51234,5.39414 -5.1232,5.39414 -2.63549,0 -4.92615,-2.11825 -4.92615,-5.41877 v -0.0493 c 0,-3.37441 2.19214,-5.36951 4.92615,-5.36951 z"
             style="font-style:normal;font-variant:normal;font-weight:300;font-stretch:normal;font-family:'Gotham Rounded';-inkscape-font-specification:'Gotham Rounded Light';fill:#6c7660;fill-opacity:1;stroke-width:0.61576903"
             id="path4884"
             inkscape:connector-curvature="0" />
          <path
             d="m 349.58412,216.99485 c 0.22168,-2.78327 2.14288,-4.87689 4.63059,-4.87689 2.8818,0 4.33501,2.33993 4.50743,4.87689 z m 9.77842,5.1232 c 0.14778,-0.14778 0.19704,-0.29557 0.19704,-0.41872 0,-0.3202 -0.27094,-0.56651 -0.59114,-0.56651 -0.17241,0 -0.29556,0.0739 -0.39409,0.17242 -1.00986,0.98523 -2.26603,1.72415 -4.06407,1.72415 -2.46308,0 -4.70448,-1.82268 -4.92616,-4.95078 h 9.85231 c 0.29557,0 0.59114,-0.27094 0.59114,-0.56651 0,-3.59609 -2.2414,-6.50252 -5.7636,-6.50252 -3.39905,0 -5.96065,2.90643 -5.96065,6.55178 v 0.0493 c 0,3.91629 2.85717,6.55179 6.1577,6.55179 2.26603,0 3.66998,-0.81282 4.90152,-2.04436 z"
             style="font-style:normal;font-variant:normal;font-weight:300;font-stretch:normal;font-family:'Gotham Rounded';-inkscape-font-specification:'Gotham Rounded Light';fill:#6c7660;fill-opacity:1;stroke-width:0.61576903"
             id="path4886"
             inkscape:connector-curvature="0" />
          <path
             d="m 371.69677,223.34959 c 0,0.34483 0.27094,0.61577 0.61577,0.61577 0.34483,0 0.59114,-0.27094 0.59114,-0.61577 v -10.93606 h 3.91629 c 0.29557,0 0.56651,-0.24631 0.56651,-0.54187 0,-0.3202 -0.24631,-0.56651 -0.56651,-0.56651 h -3.91629 v -1.20691 c 0,-2.14288 0.81282,-3.17737 2.53697,-3.17737 0.46798,0 0.88671,0.0739 1.2808,0.14779 0.36946,0.0739 0.68966,-0.17242 0.68966,-0.51725 0,-0.27094 -0.19704,-0.51725 -0.46798,-0.56651 -0.41873,-0.0985 -0.88671,-0.17241 -1.50248,-0.17241 -1.10838,0 -1.99509,0.34483 -2.63549,0.98523 -0.71429,0.71429 -1.10839,1.84731 -1.10839,3.27589 v 1.23154 h -1.35469 c -0.29557,0 -0.56651,0.24631 -0.56651,0.54187 0,0.3202 0.24631,0.56651 0.56651,0.56651 h 1.35469 z"
             style="font-style:normal;font-variant:normal;font-weight:300;font-stretch:normal;font-family:'Gotham Rounded';-inkscape-font-specification:'Gotham Rounded Light';fill:#6c7660;fill-opacity:1;stroke-width:0.61576903"
             id="path4888"
             inkscape:connector-curvature="0" />
          <path
             d="m 385.18366,224.16241 c 3.74388,0 6.47789,-3.05422 6.47789,-6.57642 v -0.0493 c 0,-3.5222 -2.70938,-6.52715 -6.42863,-6.52715 -3.74387,0 -6.47789,3.05421 -6.47789,6.57641 v 0.0493 c 0,3.5222 2.70938,6.52716 6.42863,6.52716 z m 0.0493,-1.13302 c -2.90643,0 -5.17246,-2.41381 -5.17246,-5.4434 v -0.0493 c 0,-2.95569 2.14288,-5.39414 5.1232,-5.39414 2.90643,0 5.17246,2.41382 5.17246,5.4434 v 0.0493 c 0,2.9557 -2.14288,5.39414 -5.1232,5.39414 z"
             style="font-style:normal;font-variant:normal;font-weight:300;font-stretch:normal;font-family:'Gotham Rounded';-inkscape-font-specification:'Gotham Rounded Light';fill:#6c7660;fill-opacity:1;stroke-width:0.61576903"
             id="path4890"
             inkscape:connector-curvature="0" />
          <path
             d="m 395.39619,223.34959 c 0,0.36946 0.27094,0.61577 0.61577,0.61577 0.34483,0 0.59114,-0.27094 0.59114,-0.61577 v -4.63058 c 0,-4.03945 2.38918,-6.03454 5.0493,-6.28085 0.3941,-0.0246 0.6404,-0.3202 0.6404,-0.66503 0,-0.36946 -0.27093,-0.66503 -0.6404,-0.66503 -1.77341,0 -3.96555,1.33006 -5.0493,3.76851 v -3.05422 c 0,-0.36946 -0.27094,-0.61577 -0.61577,-0.61577 -0.34483,0 -0.59114,0.27094 -0.59114,0.61577 z"
             style="font-style:normal;font-variant:normal;font-weight:300;font-stretch:normal;font-family:'Gotham Rounded';-inkscape-font-specification:'Gotham Rounded Light';fill:#6c7660;fill-opacity:1;stroke-width:0.61576903"
             id="path4892"
             inkscape:connector-curvature="0" />
          <path
             d="m 405.25811,223.34959 c 0,0.36946 0.27094,0.61577 0.61577,0.61577 0.34483,0 0.59114,-0.24631 0.59114,-0.61577 v -6.7242 c 0,-2.53697 1.77342,-4.50743 4.01482,-4.50743 2.24139,0 3.66998,1.601 3.66998,4.21186 v 7.01977 c 0,0.36946 0.27094,0.61577 0.61577,0.61577 0.34483,0 0.59114,-0.24631 0.59114,-0.61577 v -6.79809 c 0,-2.80791 1.8473,-4.43354 3.96555,-4.43354 2.31529,0 3.71924,1.57637 3.71924,4.28576 v 6.94587 c 0,0.36946 0.27094,0.61577 0.61577,0.61577 0.34483,0 0.59114,-0.24631 0.59114,-0.61577 v -7.09366 c 0,-3.15274 -1.84731,-5.24635 -4.82763,-5.24635 -2.36455,0 -3.71924,1.30543 -4.53206,2.70938 -0.68966,-1.45321 -2.04435,-2.70938 -4.23649,-2.70938 -2.2414,0 -3.37441,1.23154 -4.18723,2.53697 v -1.72416 c 0,-0.36946 -0.27094,-0.61577 -0.61577,-0.61577 -0.34483,0 -0.59114,0.27094 -0.59114,0.61577 z"
             style="font-style:normal;font-variant:normal;font-weight:300;font-stretch:normal;font-family:'Gotham Rounded';-inkscape-font-specification:'Gotham Rounded Light';fill:#6c7660;fill-opacity:1;stroke-width:0.61576903"
             id="path4894"
             inkscape:connector-curvature="0" />
          <path
             d="m 432.50397,224.16241 c 2.38918,0 3.94092,-1.18228 4.803,-2.38919 v 1.57637 c 0,0.36946 0.2463,0.61577 0.59113,0.61577 0.34483,0 0.59114,-0.24631 0.59114,-0.61577 v -7.31534 c 0,-1.55173 -0.44335,-2.70938 -1.2808,-3.54683 -0.91134,-0.91133 -2.26603,-1.37932 -3.96555,-1.37932 -1.601,0 -2.85717,0.36946 -4.13797,0.93597 -0.12315,0.0493 -0.34483,0.24631 -0.34483,0.54188 0,0.29557 0.27094,0.56651 0.56651,0.56651 0.0739,0 0.17241,-0.0246 0.27094,-0.0739 1.03449,-0.49261 2.19214,-0.83744 3.57146,-0.83744 2.58623,0 4.13797,1.30543 4.13797,3.8424 v 0.54187 c -1.20691,-0.3202 -2.41382,-0.54187 -4.1626,-0.54187 -3.25126,0 -5.49266,1.47784 -5.49266,4.0887 v 0.0493 c 0,2.61086 2.51233,3.94093 4.85226,3.94093 z m 0.0739,-1.13302 c -1.9212,0 -3.64535,-1.05912 -3.64535,-2.8818 v -0.0493 c 0,-1.74878 1.47784,-2.93106 4.13796,-2.93106 1.79805,0 3.202,0.29557 4.26113,0.56651 v 1.42858 c 0,2.29066 -2.19214,3.86703 -4.75374,3.86703 z"
             style="font-style:normal;font-variant:normal;font-weight:300;font-stretch:normal;font-family:'Gotham Rounded';-inkscape-font-specification:'Gotham Rounded Light';fill:#6c7660;fill-opacity:1;stroke-width:0.61576903"
             id="path4896"
             inkscape:connector-curvature="0" />
          <path
             d="m 454.42534,224.08851 c 0.71429,0 1.2808,-0.14778 1.77341,-0.3202 0.24631,-0.0985 0.3941,-0.27093 0.3941,-0.51724 0,-0.29557 -0.27094,-0.54188 -0.54188,-0.54188 -0.17242,0 -0.56651,0.24631 -1.42858,0.24631 -1.45322,0 -2.51234,-0.6404 -2.51234,-2.43845 v -8.10352 h 3.94092 c 0.29557,0 0.56651,-0.24631 0.56651,-0.54187 0,-0.29557 -0.27094,-0.56651 -0.56651,-0.56651 h -3.94092 v -3.49757 c 0,-0.34483 -0.27094,-0.61577 -0.61577,-0.61577 -0.34483,0 -0.59114,0.27094 -0.59114,0.61577 v 3.49757 h -1.35469 c -0.29557,0 -0.56651,0.24631 -0.56651,0.54187 0,0.29557 0.27094,0.56651 0.56651,0.56651 h 1.35469 v 8.22668 c 0,2.38918 1.57637,3.4483 3.5222,3.4483 z"
             style="font-style:normal;font-variant:normal;font-weight:300;font-stretch:normal;font-family:'Gotham Rounded';-inkscape-font-specification:'Gotham Rounded Light';fill:#6c7660;fill-opacity:1;stroke-width:0.61576903"
             id="path4898"
             inkscape:connector-curvature="0" />
          <path
             d="m 460.10005,223.34959 c 0,0.36946 0.27094,0.61577 0.61577,0.61577 0.34483,0 0.59114,-0.27094 0.59114,-0.61577 v -4.63058 c 0,-4.03945 2.38918,-6.03454 5.0493,-6.28085 0.39409,-0.0246 0.6404,-0.3202 0.6404,-0.66503 0,-0.36946 -0.27094,-0.66503 -0.6404,-0.66503 -1.77341,0 -3.96555,1.33006 -5.0493,3.76851 v -3.05422 c 0,-0.36946 -0.27094,-0.61577 -0.61577,-0.61577 -0.34483,0 -0.59114,0.27094 -0.59114,0.61577 z"
             style="font-style:normal;font-variant:normal;font-weight:300;font-stretch:normal;font-family:'Gotham Rounded';-inkscape-font-specification:'Gotham Rounded Light';fill:#6c7660;fill-opacity:1;stroke-width:0.61576903"
             id="path4900"
             inkscape:connector-curvature="0" />
          <path
             d="m 473.15436,224.16241 c 2.38918,0 3.94092,-1.18228 4.803,-2.38919 v 1.57637 c 0,0.36946 0.2463,0.61577 0.59113,0.61577 0.34484,0 0.59114,-0.24631 0.59114,-0.61577 v -7.31534 c 0,-1.55173 -0.44335,-2.70938 -1.2808,-3.54683 -0.91133,-0.91133 -2.26603,-1.37932 -3.96555,-1.37932 -1.601,0 -2.85717,0.36946 -4.13797,0.93597 -0.12315,0.0493 -0.34483,0.24631 -0.34483,0.54188 0,0.29557 0.27094,0.56651 0.56651,0.56651 0.0739,0 0.17241,-0.0246 0.27094,-0.0739 1.03449,-0.49261 2.19214,-0.83744 3.57146,-0.83744 2.58623,0 4.13797,1.30543 4.13797,3.8424 v 0.54187 c -1.20691,-0.3202 -2.41382,-0.54187 -4.1626,-0.54187 -3.25126,0 -5.49266,1.47784 -5.49266,4.0887 v 0.0493 c 0,2.61086 2.51234,3.94093 4.85226,3.94093 z m 0.0739,-1.13302 c -1.9212,0 -3.64535,-1.05912 -3.64535,-2.8818 v -0.0493 c 0,-1.74878 1.47784,-2.93106 4.13797,-2.93106 1.79804,0 3.20199,0.29557 4.26112,0.56651 v 1.42858 c 0,2.29066 -2.19214,3.86703 -4.75374,3.86703 z"
             style="font-style:normal;font-variant:normal;font-weight:300;font-stretch:normal;font-family:'Gotham Rounded';-inkscape-font-specification:'Gotham Rounded Light';fill:#6c7660;fill-opacity:1;stroke-width:0.61576903"
             id="path4902"
             inkscape:connector-curvature="0" />
          <path
             d="m 483.48002,223.34959 c 0,0.36946 0.27094,0.61577 0.61577,0.61577 0.34483,0 0.59114,-0.24631 0.59114,-0.61577 v -6.74883 c 0,-2.61086 1.89657,-4.4828 4.35964,-4.4828 2.53697,0 3.99019,1.69953 3.99019,4.28576 v 6.94587 c 0,0.36946 0.27094,0.61577 0.61577,0.61577 0.34483,0 0.59114,-0.24631 0.59114,-0.61577 v -7.16755 c 0,-3.00495 -1.84731,-5.17246 -5.02468,-5.17246 -2.29066,0 -3.69461,1.15764 -4.53206,2.63549 v -1.82268 c 0,-0.36946 -0.27094,-0.61577 -0.61577,-0.61577 -0.34483,0 -0.59114,0.27094 -0.59114,0.61577 z"
             style="font-style:normal;font-variant:normal;font-weight:300;font-stretch:normal;font-family:'Gotham Rounded';-inkscape-font-specification:'Gotham Rounded Light';fill:#6c7660;fill-opacity:1;stroke-width:0.61576903"
             id="path4904"
             inkscape:connector-curvature="0" />
          <path
             d="m 502.64969,224.11314 c 2.41381,0 4.33501,-1.42858 4.33501,-3.66998 v -0.0493 c 0,-2.21677 -2.11824,-2.95569 -4.13796,-3.5222 -1.79805,-0.51725 -3.49757,-1.03449 -3.49757,-2.43845 v -0.0493 c 0,-1.25617 1.13301,-2.19213 2.85717,-2.19213 1.2069,0 2.41381,0.39409 3.49756,1.03449 0.0739,0.0493 0.19705,0.0985 0.34483,0.0985 0.3202,0 0.59114,-0.27094 0.59114,-0.59114 0,-0.27094 -0.17241,-0.44335 -0.3202,-0.54187 -1.2069,-0.68967 -2.70938,-1.13302 -4.06407,-1.13302 -2.43845,0 -4.13797,1.45322 -4.13797,3.47294 v 0.0493 c 0,2.2414 2.26603,2.85717 4.31038,3.44831 1.74879,0.49261 3.32516,1.03449 3.32516,2.51233 v 0.0493 c 0,1.45321 -1.33007,2.38918 -3.02959,2.38918 -1.50248,0 -2.8818,-0.49262 -4.18723,-1.42859 -0.0985,-0.0739 -0.24631,-0.12315 -0.39409,-0.12315 -0.3202,0 -0.59114,0.27094 -0.59114,0.59114 0,0.19705 0.12316,0.39409 0.22168,0.46798 1.2808,0.9606 3.17737,1.62563 4.87689,1.62563 z"
             style="font-style:normal;font-variant:normal;font-weight:300;font-stretch:normal;font-family:'Gotham Rounded';-inkscape-font-specification:'Gotham Rounded Light';fill:#6c7660;fill-opacity:1;stroke-width:0.61576903"
             id="path4906"
             inkscape:connector-curvature="0" />
          <path
             d="m 510.80479,227.29051 c 0,0.36946 0.27094,0.61577 0.61577,0.61577 0.34483,0 0.59114,-0.24631 0.59114,-0.61577 v -6.13306 c 1.03449,1.57637 2.66012,3.00496 5.17246,3.00496 3.02958,0 6.10843,-2.48771 6.10843,-6.57642 v -0.0493 c 0,-4.08871 -3.07885,-6.52715 -6.10843,-6.52715 -2.48771,0 -4.08871,1.45321 -5.17246,3.10347 v -2.29066 c 0,-0.36946 -0.27094,-0.61577 -0.61577,-0.61577 -0.34483,0 -0.59114,0.24631 -0.59114,0.61577 z m 6.25621,-4.28575 c -2.61086,0 -5.12319,-2.16751 -5.12319,-5.39414 v -0.0493 c 0,-3.202 2.51233,-5.39414 5.12319,-5.39414 2.6355,0 4.92616,2.11825 4.92616,5.41877 v 0.0493 c 0,3.37442 -2.19214,5.36951 -4.92616,5.36951 z"
             style="font-style:normal;font-variant:normal;font-weight:300;font-stretch:normal;font-family:'Gotham Rounded';-inkscape-font-specification:'Gotham Rounded Light';fill:#6c7660;fill-opacity:1;stroke-width:0.61576903"
             id="path4908"
             inkscape:connector-curvature="0" />
          <path
             d="m 530.88269,224.16241 c 2.38918,0 3.94092,-1.18228 4.803,-2.38919 v 1.57637 c 0,0.36946 0.24631,0.61577 0.59114,0.61577 0.34483,0 0.59114,-0.24631 0.59114,-0.61577 v -7.31534 c 0,-1.55173 -0.44336,-2.70938 -1.2808,-3.54683 -0.91134,-0.91133 -2.26603,-1.37932 -3.96556,-1.37932 -1.601,0 -2.85717,0.36946 -4.13796,0.93597 -0.12316,0.0493 -0.34484,0.24631 -0.34484,0.54188 0,0.29557 0.27094,0.56651 0.56651,0.56651 0.0739,0 0.17242,-0.0246 0.27094,-0.0739 1.03449,-0.49261 2.19214,-0.83744 3.57146,-0.83744 2.58623,0 4.13797,1.30543 4.13797,3.8424 v 0.54187 c -1.20691,-0.3202 -2.41382,-0.54187 -4.1626,-0.54187 -3.25126,0 -5.49266,1.47784 -5.49266,4.0887 v 0.0493 c 0,2.61086 2.51234,3.94093 4.85226,3.94093 z m 0.0739,-1.13302 c -1.9212,0 -3.64535,-1.05912 -3.64535,-2.8818 v -0.0493 c 0,-1.74878 1.47785,-2.93106 4.13797,-2.93106 1.79804,0 3.202,0.29557 4.26112,0.56651 v 1.42858 c 0,2.29066 -2.19214,3.86703 -4.75374,3.86703 z"
             style="font-style:normal;font-variant:normal;font-weight:300;font-stretch:normal;font-family:'Gotham Rounded';-inkscape-font-specification:'Gotham Rounded Light';fill:#6c7660;fill-opacity:1;stroke-width:0.61576903"
             id="path4910"
             inkscape:connector-curvature="0" />
          <path
             d="m 541.20839,223.34959 c 0,0.36946 0.27093,0.61577 0.61576,0.61577 0.34484,0 0.59114,-0.27094 0.59114,-0.61577 v -4.63058 c 0,-4.03945 2.38919,-6.03454 5.04931,-6.28085 0.39409,-0.0246 0.6404,-0.3202 0.6404,-0.66503 0,-0.36946 -0.27094,-0.66503 -0.6404,-0.66503 -1.77342,0 -3.96555,1.33006 -5.04931,3.76851 v -3.05422 c 0,-0.36946 -0.27094,-0.61577 -0.61577,-0.61577 -0.34483,0 -0.59113,0.27094 -0.59113,0.61577 z"
             style="font-style:normal;font-variant:normal;font-weight:300;font-stretch:normal;font-family:'Gotham Rounded';-inkscape-font-specification:'Gotham Rounded Light';fill:#6c7660;fill-opacity:1;stroke-width:0.61576903"
             id="path4912"
             inkscape:connector-curvature="0" />
          <path
             d="m 550.86362,216.99485 c 0.22168,-2.78327 2.14288,-4.87689 4.63058,-4.87689 2.8818,0 4.33502,2.33993 4.50743,4.87689 z m 9.77841,5.1232 c 0.14779,-0.14778 0.19705,-0.29557 0.19705,-0.41872 0,-0.3202 -0.27094,-0.56651 -0.59114,-0.56651 -0.17242,0 -0.29557,0.0739 -0.39409,0.17242 -1.00986,0.98523 -2.26603,1.72415 -4.06408,1.72415 -2.46307,0 -4.70447,-1.82268 -4.92615,-4.95078 h 9.8523 c 0.29557,0 0.59114,-0.27094 0.59114,-0.56651 0,-3.59609 -2.2414,-6.50252 -5.7636,-6.50252 -3.39904,0 -5.96064,2.90643 -5.96064,6.55178 v 0.0493 c 0,3.91629 2.85717,6.55179 6.15769,6.55179 2.26603,0 3.66998,-0.81282 4.90152,-2.04436 z"
             style="font-style:normal;font-variant:normal;font-weight:300;font-stretch:normal;font-family:'Gotham Rounded';-inkscape-font-specification:'Gotham Rounded Light';fill:#6c7660;fill-opacity:1;stroke-width:0.61576903"
             id="path4914"
             inkscape:connector-curvature="0" />
          <path
             d="m 564.8289,223.34959 c 0,0.36946 0.27094,0.61577 0.61577,0.61577 0.34483,0 0.59114,-0.24631 0.59114,-0.61577 v -6.74883 c 0,-2.61086 1.89657,-4.4828 4.35964,-4.4828 2.53697,0 3.99019,1.69953 3.99019,4.28576 v 6.94587 c 0,0.36946 0.27093,0.61577 0.61576,0.61577 0.34483,0 0.59114,-0.24631 0.59114,-0.61577 v -7.16755 c 0,-3.00495 -1.8473,-5.17246 -5.02467,-5.17246 -2.29066,0 -3.69462,1.15764 -4.53206,2.63549 v -1.82268 c 0,-0.36946 -0.27094,-0.61577 -0.61577,-0.61577 -0.34483,0 -0.59114,0.27094 -0.59114,0.61577 z"
             style="font-style:normal;font-variant:normal;font-weight:300;font-stretch:normal;font-family:'Gotham Rounded';-inkscape-font-specification:'Gotham Rounded Light';fill:#6c7660;fill-opacity:1;stroke-width:0.61576903"
             id="path4916"
             inkscape:connector-curvature="0" />
          <path
             d="m 584.12169,224.08851 c 0.71429,0 1.2808,-0.14778 1.77341,-0.3202 0.24631,-0.0985 0.3941,-0.27093 0.3941,-0.51724 0,-0.29557 -0.27094,-0.54188 -0.54188,-0.54188 -0.17242,0 -0.56651,0.24631 -1.42858,0.24631 -1.45322,0 -2.51234,-0.6404 -2.51234,-2.43845 v -8.10352 h 3.94092 c 0.29557,0 0.56651,-0.24631 0.56651,-0.54187 0,-0.29557 -0.27094,-0.56651 -0.56651,-0.56651 h -3.94092 v -3.49757 c 0,-0.34483 -0.27094,-0.61577 -0.61577,-0.61577 -0.34483,0 -0.59114,0.27094 -0.59114,0.61577 v 3.49757 h -1.35469 c -0.29557,0 -0.56651,0.24631 -0.56651,0.54187 0,0.29557 0.27094,0.56651 0.56651,0.56651 h 1.35469 v 8.22668 c 0,2.38918 1.57637,3.4483 3.5222,3.4483 z"
             style="font-style:normal;font-variant:normal;font-weight:300;font-stretch:normal;font-family:'Gotham Rounded';-inkscape-font-specification:'Gotham Rounded Light';fill:#6c7660;fill-opacity:1;stroke-width:0.61576903"
             id="path4918"
             inkscape:connector-curvature="0" />
          <path
             d="m 589.83026,216.99485 c 0.22168,-2.78327 2.14288,-4.87689 4.63059,-4.87689 2.8818,0 4.33501,2.33993 4.50743,4.87689 z m 9.77842,5.1232 c 0.14778,-0.14778 0.19704,-0.29557 0.19704,-0.41872 0,-0.3202 -0.27094,-0.56651 -0.59114,-0.56651 -0.17241,0 -0.29556,0.0739 -0.39409,0.17242 -1.00986,0.98523 -2.26603,1.72415 -4.06407,1.72415 -2.46308,0 -4.70448,-1.82268 -4.92616,-4.95078 h 9.85231 c 0.29557,0 0.59114,-0.27094 0.59114,-0.56651 0,-3.59609 -2.2414,-6.50252 -5.7636,-6.50252 -3.39905,0 -5.96065,2.90643 -5.96065,6.55178 v 0.0493 c 0,3.91629 2.85717,6.55179 6.15769,6.55179 2.26603,0 3.66999,-0.81282 4.90153,-2.04436 z"
             style="font-style:normal;font-variant:normal;font-weight:300;font-stretch:normal;font-family:'Gotham Rounded';-inkscape-font-specification:'Gotham Rounded Light';fill:#6c7660;fill-opacity:1;stroke-width:0.61576903"
             id="path4920"
             inkscape:connector-curvature="0" />
        </g>
      </g>
    </g>
  </g>
</svg>
