<svg xmlns="http://www.w3.org/2000/svg" width="2345" height="800" viewBox="0 0 620.44792 211.66666"><g style="isolation:isolate" fill="#6900ae"><path d="M138.124 40.878c-26.948-26.947-70.796-26.946-97.744 0-26.947 26.948-26.947 70.795 0 97.742 22.862 22.862 56.863 26.324 83.414 10.397 0 0 1.92-1.144 3.464.401l35.262 35.262c7.018 7.019 16.831 8.69 23.056 2.465l1.07-1.071c6.226-6.224 4.556-16.039-2.463-23.057l-35.188-35.187c-1.619-1.62-.475-3.539-.475-3.539 15.927-26.55 12.465-60.551-10.396-83.413zm-12.76 84.983c-19.912 19.911-52.31 19.91-72.222 0-19.911-19.912-19.912-52.31 0-72.222 19.911-19.911 52.31-19.911 72.221 0 19.911 19.912 19.911 52.31 0 72.222z"/><path d="M85.15 121.45a7.134 7.134 0 0 1-9.915 6.566c-22.803-9.65-33.505-36.052-23.855-58.855a7.134 7.134 0 0 1 13.138 5.56c-6.583 15.558.719 33.573 16.277 40.156a7.136 7.136 0 0 1 4.355 6.573z"/></g><g font-family="Gotham Rounded" letter-spacing="0" word-spacing="0" fill="#6c7660"><g style="line-height:1.25;-inkscape-font-specification:'Gotham Rounded'" font-weight="400" font-size="103.731" stroke-width="2.593"><path d="M188.364 106.107a7.88 7.88 0 0 0 7.883 7.884 7.88 7.88 0 0 0 7.884-7.884V71.254h6.638c3.631 0 6.535-2.801 6.535-6.432 0-3.63-2.904-6.43-6.535-6.43h-6.846v-2.18c0-4.148 2.075-6.016 5.705-6.016h1.349c3.527 0 6.431-3.008 6.431-6.535 0-3.526-2.697-5.912-5.394-6.327-1.763-.311-3.942-.415-6.431-.415-5.602 0-9.855 1.452-12.759 4.357-2.904 2.904-4.46 7.364-4.46 13.485v3.526h-.623a6.508 6.508 0 0 0-6.535 6.535c0 3.631 2.905 6.432 6.535 6.432h.623zm37.654 0a7.88 7.88 0 0 0 7.883 7.884 7.88 7.88 0 0 0 7.884-7.884V65.03a7.88 7.88 0 0 0-7.884-7.884 7.88 7.88 0 0 0-7.883 7.884zm-.934-61.408c0 4.564 3.838 7.468 8.817 7.468 4.98 0 8.817-2.904 8.817-7.468v-.208c0-4.564-3.838-7.365-8.817-7.365s-8.817 2.801-8.817 7.365zM276.078 114.406c12.032 0 21.264-5.602 21.264-17.946v-.207c0-10.166-9.024-13.9-16.804-16.493-6.016-2.075-11.307-3.527-11.307-6.64v-.207c0-2.178 1.971-3.838 5.81-3.838 3.319 0 7.572 1.349 12.032 3.527 1.037.519 1.764.726 2.905.726 3.526 0 6.327-2.697 6.327-6.223 0-2.697-1.452-4.772-3.734-5.913-5.394-2.697-11.41-4.253-17.22-4.253-11.202 0-20.33 6.327-20.33 17.634v.208c0 10.788 8.816 14.418 16.596 16.7 6.12 1.867 11.514 3.008 11.514 6.432v.207c0 2.49-2.074 4.15-6.638 4.15-4.46 0-9.751-1.66-15.041-4.98-.83-.518-1.971-.83-3.112-.83-3.527 0-6.224 2.697-6.224 6.224 0 2.49 1.348 4.357 3.008 5.394 6.743 4.357 14.107 6.328 20.954 6.328zM334.888 114.613c9.128 0 15.041-2.904 19.709-7.157 1.348-1.245 2.282-2.905 2.282-4.98 0-3.734-2.904-6.742-6.639-6.742-1.867 0-3.423.83-4.253 1.452-3.008 2.386-6.224 3.838-10.373 3.838-8.61 0-14.107-6.846-14.107-15.352v-.207c0-8.195 5.601-15.145 13.485-15.145 4.15 0 7.054 1.349 9.854 3.527a7.421 7.421 0 0 0 4.564 1.556c3.942 0 7.158-3.112 7.158-7.054 0-2.697-1.452-4.564-2.49-5.394-4.668-3.941-10.58-6.224-18.982-6.224-17.012 0-29.149 13.07-29.149 28.941v.208c0 15.87 12.24 28.733 28.941 28.733zM383.57 114.406c7.676 0 12.967-2.801 16.805-7.054v.104c0 3.32 3.008 6.535 7.572 6.535 4.253 0 7.676-3.32 7.676-7.573v-25.31c0-7.468-1.867-13.589-6.016-17.738-3.942-3.942-10.166-6.224-18.776-6.224-7.365 0-12.759 1.038-17.738 2.905a6.536 6.536 0 0 0-4.253 6.12c0 3.63 2.905 6.431 6.536 6.431.726 0 1.348-.103 2.282-.415 3.008-.933 6.535-1.556 10.891-1.556 7.884 0 11.93 3.63 11.93 10.166v.934c-3.942-1.349-7.988-2.283-13.59-2.283-13.173 0-22.405 5.602-22.405 17.738v.208c0 10.995 8.61 17.012 19.086 17.012zm4.772-10.892c-5.083 0-8.61-2.49-8.61-6.742v-.208c0-4.979 4.15-7.676 10.892-7.676 3.838 0 7.365.83 10.062 2.075v2.8c0 5.706-4.98 9.751-12.344 9.751zM429.917 106.107a7.88 7.88 0 0 0 7.883 7.884 7.88 7.88 0 0 0 7.884-7.884v-61.2a7.88 7.88 0 0 0-7.884-7.884 7.88 7.88 0 0 0-7.883 7.883zM460.386 44.699c0 4.564 3.838 7.468 8.817 7.468 4.98 0 8.817-2.904 8.817-7.468v-.208c0-4.564-3.838-7.365-8.817-7.365s-8.817 2.801-8.817 7.365zm.934 61.408a7.88 7.88 0 0 0 7.883 7.884 7.88 7.88 0 0 0 7.884-7.884V65.03a7.88 7.88 0 0 0-7.884-7.884 7.88 7.88 0 0 0-7.883 7.884zM497.183 113.368h35.476c3.527 0 6.431-2.8 6.431-6.327s-2.904-6.431-6.431-6.431H509.63l25.932-28.526c2.49-2.697 3.527-4.668 3.527-7.676v-.312c0-3.734-3.215-6.327-7.676-6.327h-34.542c-3.527 0-6.432 2.904-6.432 6.431s2.905 6.328 6.432 6.328h21.99l-25.828 28.526c-2.49 2.697-3.527 4.667-3.527 7.676v.31c0 3.735 3.216 6.328 7.676 6.328zM561.483 81.212c1.245-7.158 5.498-11.825 12.033-11.825 6.639 0 10.788 4.771 11.721 11.825zm32.883 26.659c1.14-1.038 2.074-2.594 2.074-4.668 0-3.527-2.593-6.224-6.12-6.224-1.66 0-2.697.415-3.838 1.245-3.216 2.386-6.846 3.734-11.203 3.734-7.053 0-12.033-3.734-13.589-10.892h31.223c4.15 0 7.365-3.008 7.365-7.572 0-11.514-8.194-26.763-26.762-26.763-16.182 0-27.489 13.07-27.489 28.941v.208c0 17.012 12.344 28.733 29.045 28.733 8.09 0 14.418-2.593 19.294-6.742z"/></g><g style="line-height:1.25;-inkscape-font-specification:'Gotham Rounded'" font-weight="300" font-size="24.631" stroke-width=".616"><path d="M181.206 137.893c0 .345.296.64.64.64h5.1c5.418 0 9.162-3.768 9.162-8.62v-.05c0-4.852-3.744-8.571-9.163-8.571h-5.098a.652.652 0 0 0-.64.64zm1.281-.542v-14.877h4.458c4.803 0 7.833 3.35 7.833 7.439v.05c0 4.112-3.03 7.388-7.833 7.388zM200.597 131.662c.222-2.784 2.143-4.877 4.63-4.877 2.882 0 4.335 2.34 4.508 4.877zm9.778 5.123c.148-.148.197-.296.197-.419 0-.32-.27-.566-.59-.566a.536.536 0 0 0-.395.172c-1.01.985-2.266 1.724-4.064 1.724-2.463 0-4.704-1.823-4.926-4.95h9.852c.296 0 .591-.272.591-.567 0-3.596-2.241-6.503-5.763-6.503-3.4 0-5.96 2.907-5.96 6.552v.05c0 3.916 2.856 6.551 6.157 6.551 2.266 0 3.67-.813 4.901-2.044zM214.562 138.016c0 .37.271.616.616.616s.591-.246.591-.616v-6.724c0-2.537 1.773-4.507 4.015-4.507 2.241 0 3.67 1.6 3.67 4.212v7.02c0 .369.27.615.616.615.344 0 .59-.246.59-.616v-6.798c0-2.808 1.848-4.433 3.966-4.433 2.316 0 3.72 1.576 3.72 4.285v6.946c0 .37.27.616.615.616s.591-.246.591-.616v-7.093c0-3.153-1.847-5.247-4.827-5.247-2.365 0-3.72 1.306-4.532 2.71-.69-1.454-2.045-2.71-4.237-2.71-2.241 0-3.374 1.232-4.187 2.537v-1.724c0-.37-.27-.616-.616-.616-.345 0-.59.271-.59.616zM243.557 138.83c3.744 0 6.478-3.055 6.478-6.577v-.05c0-3.522-2.71-6.527-6.429-6.527-3.744 0-6.478 3.054-6.478 6.577v.049c0 3.522 2.71 6.527 6.429 6.527zm.05-1.134c-2.907 0-5.173-2.414-5.173-5.443v-.05c0-2.955 2.142-5.394 5.123-5.394 2.906 0 5.172 2.414 5.172 5.444v.049c0 2.956-2.143 5.394-5.123 5.394zM259.311 138.83c2.143 0 3.596-.888 4.852-2.168a.543.543 0 0 0 .148-.37c0-.295-.295-.591-.59-.591-.173 0-.296.099-.395.197-1.01 1.01-2.315 1.798-3.94 1.798-2.883 0-5.173-2.414-5.173-5.443v-.05c0-3.005 2.216-5.394 5.074-5.394 1.7 0 2.881.813 3.891 1.774.099.098.271.147.419.147a.61.61 0 0 0 .616-.615.657.657 0 0 0-.173-.444c-1.133-1.059-2.561-1.995-4.729-1.995-3.596 0-6.404 3.054-6.404 6.577v.049c0 3.522 2.784 6.527 6.404 6.527zM267.817 138.016c0 .37.27.616.615.616s.591-.27.591-.616v-4.63c0-4.04 2.39-6.035 5.05-6.281a.656.656 0 0 0 .64-.665c0-.37-.27-.665-.64-.665-1.774 0-3.966 1.33-5.05 3.768v-3.054c0-.37-.27-.616-.615-.616s-.591.271-.591.616zM280.87 138.83c2.39 0 3.942-1.183 4.804-2.39v1.576c0 .37.246.616.591.616s.591-.246.591-.616v-7.315c0-1.552-.443-2.71-1.28-3.547-.912-.911-2.267-1.38-3.966-1.38-1.601 0-2.857.37-4.138.937a.613.613 0 0 0-.345.542c0 .295.27.566.566.566a.642.642 0 0 0 .271-.074c1.035-.492 2.193-.837 3.572-.837 2.586 0 4.138 1.305 4.138 3.842v.542c-1.207-.32-2.414-.542-4.163-.542-3.251 0-5.492 1.478-5.492 4.089v.05c0 2.61 2.512 3.94 4.852 3.94zm.075-1.134c-1.921 0-3.646-1.059-3.646-2.882v-.049c0-1.749 1.478-2.931 4.138-2.931 1.798 0 3.202.296 4.261.566v1.429c0 2.29-2.192 3.867-4.753 3.867zM296.738 138.83c2.143 0 3.597-.888 4.853-2.168a.543.543 0 0 0 .147-.37c0-.295-.295-.591-.59-.591-.173 0-.296.099-.395.197-1.01 1.01-2.315 1.798-3.94 1.798-2.882 0-5.173-2.414-5.173-5.443v-.05c0-3.005 2.217-5.394 5.074-5.394 1.7 0 2.882.813 3.891 1.774.099.098.271.147.42.147a.61.61 0 0 0 .615-.615.657.657 0 0 0-.172-.444c-1.133-1.059-2.562-1.995-4.73-1.995-3.596 0-6.404 3.054-6.404 6.577v.049c0 3.522 2.784 6.527 6.404 6.527zM305.268 122.08c0 .419.32.74.74.74.418 0 .763-.321.763-.74v-.419a.747.747 0 0 0-.764-.738.726.726 0 0 0-.739.738zm.148 15.936c0 .37.271.616.616.616s.591-.246.591-.616V126.49c0-.37-.27-.616-.616-.616-.345 0-.59.271-.59.616zM315.171 138.83c2.39 0 3.941-1.183 4.803-2.39v1.576c0 .37.246.616.591.616s.591-.246.591-.616v-7.315c0-1.552-.443-2.71-1.28-3.547-.912-.911-2.266-1.38-3.966-1.38-1.601 0-2.857.37-4.138.937a.613.613 0 0 0-.345.542c0 .295.271.566.567.566a.642.642 0 0 0 .27-.074c1.035-.492 2.193-.837 3.572-.837 2.586 0 4.138 1.305 4.138 3.842v.542c-1.207-.32-2.414-.542-4.162-.542-3.252 0-5.493 1.478-5.493 4.089v.05c0 2.61 2.512 3.94 4.852 3.94zm.074-1.134c-1.921 0-3.645-1.059-3.645-2.882v-.049c0-1.749 1.477-2.931 4.138-2.931 1.798 0 3.202.296 4.26.566v1.429c0 2.29-2.191 3.867-4.753 3.867zM344.58 121.07c0-.37-.27-.615-.616-.615-.344 0-.59.246-.59.615v7.611c-1.035-1.576-2.66-3.005-5.173-3.005-3.03 0-6.109 2.488-6.109 6.577v.049c0 4.089 3.08 6.527 6.109 6.527 2.488 0 4.089-1.453 5.172-3.103v2.29c0 .37.271.616.616.616s.591-.246.591-.616zm-6.256 5.764c2.61 0 5.123 2.167 5.123 5.394v.05c0 3.201-2.512 5.393-5.123 5.393-2.635 0-4.926-2.118-4.926-5.418v-.05c0-3.374 2.192-5.37 4.926-5.37zM349.584 131.662c.222-2.784 2.143-4.877 4.63-4.877 2.883 0 4.336 2.34 4.508 4.877zm9.779 5.123c.147-.148.197-.296.197-.419 0-.32-.271-.566-.592-.566a.536.536 0 0 0-.394.172c-1.01.985-2.266 1.724-4.064 1.724-2.463 0-4.704-1.823-4.926-4.95h9.852c.296 0 .592-.272.592-.567 0-3.596-2.242-6.503-5.764-6.503-3.4 0-5.96 2.907-5.96 6.552v.05c0 3.916 2.856 6.551 6.157 6.551 2.266 0 3.67-.813 4.902-2.044zM371.697 138.016c0 .345.27.616.616.616.344 0 .59-.27.59-.616V127.08h3.917c.296 0 .566-.246.566-.542a.557.557 0 0 0-.566-.566h-3.916v-1.207c0-2.143.813-3.177 2.537-3.177.468 0 .886.073 1.28.147.37.074.69-.172.69-.517a.58.58 0 0 0-.468-.566 6.306 6.306 0 0 0-1.502-.173c-1.109 0-1.995.345-2.636.985-.714.715-1.108 1.848-1.108 3.276v1.232h-1.355c-.295 0-.566.246-.566.542 0 .32.246.566.566.566h1.355zM385.184 138.83c3.744 0 6.478-3.055 6.478-6.577v-.05c0-3.522-2.71-6.527-6.43-6.527-3.743 0-6.477 3.054-6.477 6.577v.049c0 3.522 2.71 6.527 6.429 6.527zm.049-1.134c-2.906 0-5.173-2.414-5.173-5.443v-.05c0-2.955 2.143-5.394 5.124-5.394 2.906 0 5.172 2.414 5.172 5.444v.049c0 2.956-2.143 5.394-5.123 5.394zM395.396 138.016c0 .37.271.616.616.616s.591-.27.591-.616v-4.63c0-4.04 2.39-6.035 5.05-6.281a.656.656 0 0 0 .64-.665c0-.37-.271-.665-.64-.665-1.774 0-3.966 1.33-5.05 3.768v-3.054c0-.37-.27-.616-.616-.616-.345 0-.59.271-.59.616zM405.258 138.016c0 .37.271.616.616.616s.591-.246.591-.616v-6.724c0-2.537 1.773-4.507 4.015-4.507 2.241 0 3.67 1.6 3.67 4.212v7.02c0 .369.27.615.616.615.344 0 .59-.246.59-.616v-6.798c0-2.808 1.848-4.433 3.966-4.433 2.316 0 3.72 1.576 3.72 4.285v6.946c0 .37.27.616.615.616s.591-.246.591-.616v-7.093c0-3.153-1.847-5.247-4.827-5.247-2.365 0-3.72 1.306-4.532 2.71-.69-1.454-2.045-2.71-4.237-2.71-2.241 0-3.374 1.232-4.187 2.537v-1.724c0-.37-.27-.616-.616-.616-.345 0-.59.271-.59.616zM432.504 138.83c2.39 0 3.94-1.183 4.803-2.39v1.576c0 .37.246.616.591.616s.591-.246.591-.616v-7.315c0-1.552-.443-2.71-1.28-3.547-.912-.911-2.267-1.38-3.966-1.38-1.601 0-2.857.37-4.138.937a.613.613 0 0 0-.345.542c0 .295.271.566.567.566a.642.642 0 0 0 .27-.074c1.035-.492 2.193-.837 3.572-.837 2.586 0 4.138 1.305 4.138 3.842v.542c-1.207-.32-2.414-.542-4.163-.542-3.25 0-5.492 1.478-5.492 4.089v.05c0 2.61 2.512 3.94 4.852 3.94zm.074-1.134c-1.921 0-3.645-1.059-3.645-2.882v-.049c0-1.749 1.477-2.931 4.137-2.931 1.799 0 3.202.296 4.262.566v1.429c0 2.29-2.193 3.867-4.754 3.867zM454.425 138.755c.715 0 1.281-.148 1.774-.32.246-.098.394-.27.394-.517a.564.564 0 0 0-.542-.542c-.172 0-.567.246-1.429.246-1.453 0-2.512-.64-2.512-2.438v-8.104h3.941c.296 0 .566-.246.566-.542a.59.59 0 0 0-.566-.566h-3.94v-3.498a.61.61 0 0 0-.617-.615c-.345 0-.59.27-.59.615v3.498h-1.356c-.295 0-.566.246-.566.542 0 .295.27.566.566.566h1.355v8.227c0 2.39 1.577 3.448 3.522 3.448zM460.1 138.016c0 .37.271.616.616.616s.591-.27.591-.616v-4.63c0-4.04 2.39-6.035 5.05-6.281a.656.656 0 0 0 .64-.665c0-.37-.271-.665-.64-.665-1.774 0-3.966 1.33-5.05 3.768v-3.054c0-.37-.271-.616-.616-.616s-.59.271-.59.616zM473.154 138.83c2.39 0 3.941-1.183 4.803-2.39v1.576c0 .37.247.616.591.616.345 0 .592-.246.592-.616v-7.315c0-1.552-.444-2.71-1.281-3.547-.911-.911-2.266-1.38-3.966-1.38-1.6 0-2.857.37-4.138.937a.613.613 0 0 0-.345.542c0 .295.271.566.567.566a.642.642 0 0 0 .27-.074c1.035-.492 2.193-.837 3.572-.837 2.587 0 4.138 1.305 4.138 3.842v.542c-1.207-.32-2.413-.542-4.162-.542-3.252 0-5.493 1.478-5.493 4.089v.05c0 2.61 2.512 3.94 4.852 3.94zm.074-1.134c-1.92 0-3.645-1.059-3.645-2.882v-.049c0-1.749 1.478-2.931 4.138-2.931 1.798 0 3.202.296 4.261.566v1.429c0 2.29-2.192 3.867-4.754 3.867zM483.48 138.016c0 .37.271.616.616.616s.59-.246.59-.616v-6.749c0-2.61 1.898-4.482 4.36-4.482 2.538 0 3.99 1.7 3.99 4.285v6.946c0 .37.272.616.617.616.344 0 .59-.246.59-.616v-7.167c0-3.005-1.847-5.173-5.024-5.173-2.29 0-3.695 1.158-4.532 2.636v-1.823c0-.37-.271-.616-.616-.616s-.591.271-.591.616zM502.65 138.78c2.414 0 4.335-1.429 4.335-3.67v-.05c0-2.216-2.119-2.955-4.138-3.522-1.798-.517-3.498-1.034-3.498-2.438v-.05c0-1.256 1.133-2.192 2.857-2.192 1.207 0 2.414.395 3.498 1.035.074.05.197.098.345.098a.6.6 0 0 0 .59-.59c0-.272-.172-.444-.32-.543-1.206-.69-2.709-1.133-4.063-1.133-2.439 0-4.138 1.454-4.138 3.473v.05c0 2.241 2.266 2.857 4.31 3.448 1.749.493 3.325 1.034 3.325 2.512v.05c0 1.453-1.33 2.389-3.03 2.389-1.502 0-2.881-.493-4.187-1.429a.681.681 0 0 0-.394-.123.6.6 0 0 0-.59.591c0 .197.122.394.22.468 1.282.96 3.178 1.626 4.878 1.626zM510.805 141.957c0 .37.27.616.616.616.344 0 .59-.246.59-.616v-6.133c1.035 1.577 2.66 3.005 5.173 3.005 3.03 0 6.109-2.488 6.109-6.576v-.05c0-4.088-3.08-6.527-6.109-6.527-2.488 0-4.089 1.453-5.172 3.104v-2.29c0-.37-.271-.617-.616-.617s-.591.247-.591.616zm6.256-4.286c-2.61 0-5.123-2.167-5.123-5.394v-.049c0-3.202 2.512-5.394 5.123-5.394 2.635 0 4.926 2.118 4.926 5.419v.049c0 3.374-2.192 5.37-4.926 5.37zM530.883 138.83c2.389 0 3.94-1.183 4.803-2.39v1.576c0 .37.246.616.59.616.346 0 .592-.246.592-.616v-7.315c0-1.552-.443-2.71-1.28-3.547-.912-.911-2.267-1.38-3.966-1.38-1.601 0-2.858.37-4.138.937a.613.613 0 0 0-.345.542c0 .295.27.566.566.566a.642.642 0 0 0 .271-.074c1.035-.492 2.192-.837 3.572-.837 2.586 0 4.138 1.305 4.138 3.842v.542c-1.207-.32-2.414-.542-4.163-.542-3.251 0-5.493 1.478-5.493 4.089v.05c0 2.61 2.513 3.94 4.853 3.94zm.074-1.134c-1.922 0-3.646-1.059-3.646-2.882v-.049c0-1.749 1.478-2.931 4.138-2.931 1.798 0 3.202.296 4.261.566v1.429c0 2.29-2.192 3.867-4.753 3.867zM541.208 138.016c0 .37.271.616.616.616s.591-.27.591-.616v-4.63c0-4.04 2.39-6.035 5.05-6.281a.656.656 0 0 0 .64-.665c0-.37-.27-.665-.64-.665-1.774 0-3.966 1.33-5.05 3.768v-3.054c0-.37-.27-.616-.615-.616s-.592.271-.592.616zM550.864 131.662c.221-2.784 2.142-4.877 4.63-4.877 2.882 0 4.335 2.34 4.508 4.877zm9.778 5.123c.148-.148.197-.296.197-.419 0-.32-.27-.566-.591-.566a.536.536 0 0 0-.394.172c-1.01.985-2.266 1.724-4.064 1.724-2.463 0-4.705-1.823-4.926-4.95h9.852c.295 0 .591-.272.591-.567 0-3.596-2.241-6.503-5.764-6.503-3.399 0-5.96 2.907-5.96 6.552v.05c0 3.916 2.857 6.551 6.158 6.551 2.266 0 3.67-.813 4.901-2.044zM564.829 138.016c0 .37.27.616.616.616.344 0 .59-.246.59-.616v-6.749c0-2.61 1.897-4.482 4.36-4.482 2.537 0 3.99 1.7 3.99 4.285v6.946c0 .37.272.616.616.616.345 0 .592-.246.592-.616v-7.167c0-3.005-1.848-5.173-5.025-5.173-2.29 0-3.695 1.158-4.532 2.636v-1.823c0-.37-.271-.616-.616-.616s-.591.271-.591.616zM584.122 138.755c.714 0 1.28-.148 1.773-.32.246-.098.394-.27.394-.517a.564.564 0 0 0-.542-.542c-.172 0-.566.246-1.428.246-1.453 0-2.513-.64-2.513-2.438v-8.104h3.941c.296 0 .567-.246.567-.542a.59.59 0 0 0-.567-.566h-3.94v-3.498a.61.61 0 0 0-.616-.615c-.345 0-.592.27-.592.615v3.498h-1.354c-.296 0-.567.246-.567.542 0 .295.271.566.567.566h1.354v8.227c0 2.39 1.577 3.448 3.523 3.448zM589.83 131.662c.222-2.784 2.143-4.877 4.63-4.877 2.883 0 4.336 2.34 4.508 4.877zm9.779 5.123c.147-.148.197-.296.197-.419 0-.32-.271-.566-.591-.566a.536.536 0 0 0-.395.172c-1.01.985-2.266 1.724-4.064 1.724-2.463 0-4.704-1.823-4.926-4.95h9.853c.295 0 .59-.272.59-.567 0-3.596-2.24-6.503-5.763-6.503-3.399 0-5.96 2.907-5.96 6.552v.05c0 3.916 2.857 6.551 6.157 6.551 2.266 0 3.67-.813 4.902-2.044z" style="-inkscape-font-specification:'Gotham Rounded Light'"/></g></g></svg>