<?xml version="1.0" encoding="UTF-8" standalone="no"?>
<!-- Created with Inkscape (http://www.inkscape.org/) -->

<svg
   xmlns:dc="http://purl.org/dc/elements/1.1/"
   xmlns:cc="http://creativecommons.org/ns#"
   xmlns:rdf="http://www.w3.org/1999/02/22-rdf-syntax-ns#"
   xmlns:svg="http://www.w3.org/2000/svg"
   xmlns="http://www.w3.org/2000/svg"
   xmlns:sodipodi="http://sodipodi.sourceforge.net/DTD/sodipodi-0.dtd"
   xmlns:inkscape="http://www.inkscape.org/namespaces/inkscape"
   width="2345"
   height="800"
   viewBox="0 0 620.44792 211.66666"
   version="1.1"
   id="svg48"
   inkscape:version="0.92.2 (5c3e80d, 2017-08-06)"
   sodipodi:docname="fiscalize-logo-with-title.svg"
   inkscape:export-filename="/home/gerardo/Projetos/wikificha/desgin/logos/fiscalize-logo-with-title.png"
   inkscape:export-xdpi="119.30888"
   inkscape:export-ydpi="119.30888">
  <defs
     id="defs42" />
  <sodipodi:namedview
     id="base"
     pagecolor="#ffffff"
     bordercolor="#666666"
     borderopacity="1.0"
     inkscape:pageopacity="0.0"
     inkscape:pageshadow="2"
     inkscape:zoom="0.35355339"
     inkscape:cx="1027.5443"
     inkscape:cy="508.42679"
     inkscape:document-units="mm"
     inkscape:current-layer="layer1"
     showgrid="false"
     inkscape:window-width="1366"
     inkscape:window-height="738"
     inkscape:window-x="0"
     inkscape:window-y="1"
     inkscape:window-maximized="1"
     units="px"
     showguides="true"
     inkscape:guide-bbox="true" />
  <metadata
     id="metadata45">
    <rdf:RDF>
      <cc:Work
         rdf:about="">
        <dc:format>image/svg+xml</dc:format>
        <dc:type
           rdf:resource="http://purl.org/dc/dcmitype/StillImage" />
        <dc:title />
      </cc:Work>
    </rdf:RDF>
  </metadata>
  <g
     inkscape:label="Camada 1"
     inkscape:groupmode="layer"
     id="layer1"
     transform="translate(0,-85.3333)">
    <g
       id="g865"
       transform="translate(-3.3941866,-5.3655696e-6)">
      <g
         transform="matrix(0,-0.54871254,0.54871254,0,23.56394,276.33226)"
         id="g1675"
         style="isolation:isolate;fill:#6900ae;fill-opacity:1">
        <path
           style="fill:#6900ae;fill-opacity:1"
           inkscape:connector-curvature="0"
           d="m 273.587,214.965 c 49.11,-49.111 49.109,-129.021 0,-178.132 -49.111,-49.111 -129.02,-49.111 -178.13,0 C 53.793,78.497 47.483,140.462 76.51,188.85 c 0,0 2.085,3.498 -0.731,6.312 -16.065,16.064 -64.263,64.263 -64.263,64.263 -12.791,12.79 -15.836,30.675 -4.493,42.02 l 1.953,1.951 c 11.343,11.345 29.229,8.301 42.019,-4.49 0,0 48.096,-48.097 64.128,-64.128 2.951,-2.951 6.448,-0.866 6.448,-0.866 48.387,29.026 110.352,22.717 152.016,-18.947 z M 118.711,191.71 C 82.423,155.422 82.424,96.378 118.712,60.09 c 36.288,-36.287 95.332,-36.288 131.619,0 36.288,36.287 36.288,95.332 0,131.62 -36.288,36.286 -95.331,36.286 -131.62,0 z"
           id="path1669" />
        <g
           style="fill:#6900ae;fill-opacity:1"
           id="g1673">
          <path
             style="fill:#6900ae;fill-opacity:1"
             inkscape:connector-curvature="0"
             d="m 126.75,118.424 c -1.689,0 -3.406,-0.332 -5.061,-1.031 -6.611,-2.798 -9.704,-10.426 -6.906,-17.038 17.586,-41.559 65.703,-61.062 107.261,-43.476 6.611,2.798 9.704,10.426 6.906,17.038 -2.799,6.612 -10.425,9.703 -17.039,6.906 -28.354,-11.998 -61.186,1.309 -73.183,29.663 -2.099,4.959 -6.913,7.938 -11.978,7.938 z"
             id="path1671" />
        </g>
      </g>
      <g
         transform="translate(6.7883763,-10.804167)"
         id="g852">
        <text
           xml:space="preserve"
           style="font-style:normal;font-variant:normal;font-weight:normal;font-stretch:normal;font-size:103.73073578px;line-height:1.25;font-family:'Gotham Rounded';-inkscape-font-specification:'Gotham Rounded';letter-spacing:0px;word-spacing:0px;fill:#6c7660;fill-opacity:1;stroke:none;stroke-width:2.59326839"
           x="175.21869"
           y="209.50591"
           id="text21"><tspan
             sodipodi:role="line"
             id="tspan19"
             x="175.21869"
             y="209.50591"
             style="fill:#6c7660;fill-opacity:1;stroke-width:2.59326839">fiscalize</tspan></text>
        <text
           xml:space="preserve"
           style="font-style:normal;font-variant:normal;font-weight:normal;font-stretch:normal;font-size:24.6307621px;line-height:1.25;font-family:'Gotham Rounded';-inkscape-font-specification:'Gotham Rounded';letter-spacing:0px;word-spacing:0px;fill:#6c7660;fill-opacity:1;stroke:none;stroke-width:0.61576903"
           x="175.25052"
           y="234.67101"
           id="text24"><tspan
             sodipodi:role="line"
             id="tspan22"
             x="175.25052"
             y="234.67101"
             style="font-style:normal;font-variant:normal;font-weight:300;font-stretch:normal;font-family:'Gotham Rounded';-inkscape-font-specification:'Gotham Rounded Light';fill:#6c7660;fill-opacity:1;stroke-width:0.61576903">Democracia de forma transparente</tspan></text>
      </g>
    </g>
  </g>
</svg>
